<?xml version="1.0" standalone="no"?>
<!DOCTYPE svg PUBLIC "-//W3C//DTD SVG 20010904//EN"
 "http://www.w3.org/TR/2001/REC-SVG-20010904/DTD/svg10.dtd">
<svg version="1.0" xmlns="http://www.w3.org/2000/svg"
 width="2000.000000pt" height="1638.000000pt" viewBox="0 0 2000.000000 1638.000000"
 preserveAspectRatio="xMidYMid meet">

<g transform="translate(0.000000,1638.000000) scale(0.100000,-0.100000)"
fill="#000000" stroke="none">
<path d="M17615 16024 c-242 -53 -412 -180 -506 -379 -25 -52 -160 -481 -390
-1242 l-352 -1163 -6526 0 c-3978 0 -6563 -4 -6621 -10 -175 -17 -313 -82
-430 -200 -78 -80 -131 -167 -167 -275 -23 -69 -27 -96 -27 -205 l0 -125 943
-3295 c518 -1812 951 -3320 962 -3350 77 -210 275 -377 501 -424 70 -14 500
-16 4523 -16 2445 0 4445 -2 4445 -4 0 -6 -461 -1530 -463 -1533 -1 0 -40 7
-87 18 -287 63 -627 43 -921 -56 l-104 -35 -2595 0 -2595 0 -105 35 c-703 237
-1467 12 -1932 -570 -300 -376 -434 -890 -354 -1365 106 -633 546 -1157 1147
-1368 352 -124 765 -128 1120 -11 131 42 356 156 469 236 122 87 326 292 412
413 157 222 258 473 303 753 16 102 22 362 9 456 l-7 51 1532 0 1531 0 -5 -77
c-3 -43 -8 -97 -10 -120 -7 -67 14 -297 36 -407 43 -206 131 -418 245 -594
175 -269 425 -488 714 -626 784 -374 1715 -119 2201 602 320 477 386 1093 173
1622 l-34 84 74 246 c204 676 3442 11361 3472 11457 l34 112 508 3 507 3 80
27 c178 61 316 177 397 334 63 124 82 214 75 357 -3 85 -11 130 -30 185 -73
206 -234 361 -451 436 -60 20 -80 20 -871 22 -445 1 -819 0 -830 -2z m-1690
-4241 c-25 -82 -1522 -5025 -1531 -5056 -5 -16 -220 -17 -4372 -15 l-4366 3
-728 2545 c-400 1400 -730 2557 -733 2573 l-7 27 5880 0 5880 0 -23 -77z"/>
</g>
</svg>
