<?xml version="1.0" standalone="no"?>
<!DOCTYPE svg PUBLIC "-//W3C//DTD SVG 20010904//EN"
 "http://www.w3.org/TR/2001/REC-SVG-20010904/DTD/svg10.dtd">
<svg version="1.0" xmlns="http://www.w3.org/2000/svg"
 width="1249.000000pt" height="1259.000000pt" viewBox="0 0 1249.000000 1259.000000"
 preserveAspectRatio="xMidYMid meet">

<g transform="translate(0.000000,1259.000000) scale(0.100000,-0.100000)"
fill="#000000" stroke="none">
<path d="M8391 9539 c-13 -5 -51 -31 -85 -57 -33 -27 -182 -140 -331 -252
-148 -113 -367 -278 -485 -367 -118 -90 -357 -270 -530 -400 -173 -131 -354
-271 -401 -310 -124 -104 -259 -250 -293 -317 l-29 -57 11 -192 c19 -305 33
-511 46 -667 l12 -145 -40 -43 c-22 -24 -49 -48 -59 -54 -17 -9 -169 139
-1326 1295 -942 941 -1319 1311 -1351 1328 -95 48 -171 43 -236 -13 -72 -63
-101 -174 -84 -328 19 -178 72 -334 203 -595 47 -93 113 -231 147 -305 163
-359 335 -635 583 -934 314 -377 626 -641 939 -791 144 -69 243 -95 362 -95
112 0 189 19 283 70 63 34 73 37 85 23 10 -12 9 -17 -4 -27 -9 -6 -74 -66
-144 -132 -210 -196 -529 -492 -1039 -964 -264 -244 -509 -471 -545 -505 -36
-34 -101 -95 -145 -135 -44 -40 -109 -101 -145 -135 -127 -120 -594 -551 -630
-582 -49 -42 -115 -145 -140 -217 -13 -38 -20 -85 -20 -131 0 -63 5 -82 35
-143 40 -80 113 -153 185 -185 73 -33 168 -29 252 11 73 35 109 69 338 322 68
74 144 158 169 185 26 28 263 286 526 575 264 289 624 683 800 875 176 193
430 471 564 618 l245 267 145 -142 c80 -78 470 -465 866 -858 396 -394 926
-920 1178 -1170 251 -250 472 -462 490 -472 46 -24 147 -24 196 2 51 26 100
75 122 125 24 51 24 138 1 187 -17 38 -618 650 -1977 2016 -368 370 -671 679
-673 685 -1 7 21 36 51 65 l53 52 79 -10 c75 -9 535 -41 800 -56 139 -7 161
-1 253 69 61 48 189 177 263 267 26 30 293 381 594 780 302 399 598 789 657
868 60 78 114 153 120 166 16 36 2 73 -33 92 -45 23 -77 6 -157 -85 -57 -66
-263 -297 -642 -720 -47 -52 -146 -163 -220 -246 -74 -83 -240 -269 -369 -413
-138 -154 -242 -262 -252 -262 -24 0 -118 87 -125 116 -6 23 -17 10 601 709
73 83 274 310 446 505 172 195 351 398 397 450 46 52 88 105 93 119 23 60 -23
121 -93 121 -38 0 -52 -14 -869 -835 -457 -459 -840 -837 -851 -841 -29 -9
-163 124 -154 153 3 11 380 392 837 847 457 456 835 839 840 853 33 87 -81
154 -158 93 -28 -23 -389 -341 -623 -549 -52 -46 -111 -98 -130 -115 -19 -17
-107 -95 -195 -172 -88 -78 -301 -266 -473 -418 -263 -232 -316 -275 -331
-266 -30 15 -111 111 -111 129 0 10 74 83 168 167 92 82 185 165 207 185 38
35 395 354 1041 931 166 148 306 280 313 294 16 36 14 48 -14 78 -25 27 -45
31 -84 15z"/>
</g>
</svg>
