<?xml version="1.0" standalone="no"?>
<!DOCTYPE svg PUBLIC "-//W3C//DTD SVG 20010904//EN"
 "http://www.w3.org/TR/2001/REC-SVG-20010904/DTD/svg10.dtd">
<svg version="1.0" xmlns="http://www.w3.org/2000/svg"
 width="980.000000pt" height="980.000000pt" viewBox="0 0 980.000000 980.000000"
 preserveAspectRatio="xMidYMid meet">

<g transform="translate(0.000000,980.000000) scale(0.100000,-0.100000)"
fill="#000000" stroke="none">
<path d="M4529 9796 c-2 -3 -36 -7 -74 -10 -76 -6 -141 -13 -195 -21 -19 -3
-51 -7 -70 -10 -19 -2 -51 -7 -70 -10 -19 -3 -44 -8 -55 -9 -11 -2 -36 -7 -55
-11 -19 -4 -44 -8 -55 -10 -48 -9 -72 -14 -95 -20 -14 -3 -34 -8 -45 -10 -11
-2 -30 -6 -42 -9 -13 -3 -32 -8 -43 -11 -11 -3 -29 -7 -40 -10 -32 -8 -64 -16
-80 -20 -8 -2 -15 -4 -15 -5 0 -2 -20 -7 -45 -12 -8 -2 -21 -7 -27 -11 -7 -5
-13 -6 -13 -3 0 3 -16 -2 -35 -10 -19 -8 -35 -11 -35 -8 0 4 -7 1 -15 -6 -8
-7 -15 -9 -15 -5 0 4 -7 2 -15 -5 -8 -7 -15 -9 -15 -5 0 4 -7 2 -15 -5 -8 -7
-15 -9 -15 -5 0 4 -7 2 -15 -5 -8 -7 -15 -9 -15 -5 0 4 -7 2 -15 -5 -8 -7 -15
-9 -15 -5 0 4 -7 2 -15 -5 -8 -7 -15 -9 -15 -5 0 4 -7 2 -15 -5 -8 -7 -15 -10
-15 -6 0 4 -12 -2 -27 -11 -15 -10 -28 -17 -30 -16 -3 3 -21 -2 -50 -14 -10
-3 -20 -7 -23 -8 -3 -1 -18 -7 -35 -14 -16 -8 -41 -18 -55 -24 -14 -5 -42 -18
-62 -29 -21 -11 -38 -17 -38 -14 0 3 -28 -10 -63 -29 -35 -19 -66 -33 -68 -31
-2 3 -31 -11 -64 -29 -33 -19 -89 -49 -125 -67 -36 -18 -71 -38 -78 -45 -6 -6
-22 -15 -35 -19 -12 -4 -24 -10 -27 -13 -8 -10 -130 -81 -140 -81 -5 0 -10 -3
-12 -7 -4 -11 -116 -83 -127 -83 -5 0 -11 -3 -13 -7 -5 -13 -76 -63 -87 -63
-6 0 -11 -3 -11 -7 0 -5 -24 -24 -53 -43 -28 -19 -54 -38 -57 -41 -3 -3 -61
-51 -130 -106 -281 -225 -593 -542 -790 -803 -19 -25 -40 -52 -47 -60 -8 -8
-44 -58 -80 -110 -37 -52 -71 -96 -75 -98 -4 -2 -8 -8 -8 -13 0 -8 -67 -116
-80 -129 -3 -3 -14 -21 -24 -40 -10 -19 -31 -54 -47 -77 -15 -22 -30 -51 -34
-62 -3 -11 -12 -27 -18 -33 -7 -7 -23 -37 -37 -67 -14 -30 -30 -60 -36 -66
-16 -15 -76 -135 -68 -135 3 0 -10 -29 -30 -65 -20 -36 -33 -65 -30 -65 3 0
-5 -19 -17 -42 -12 -24 -28 -55 -36 -70 -8 -16 -11 -28 -8 -28 3 0 0 -10 -7
-22 -7 -13 -13 -25 -14 -28 0 -3 -3 -12 -6 -20 -9 -24 -19 -55 -20 -60 0 -3
-5 -14 -11 -25 -6 -11 -12 -23 -13 -27 -1 -5 -3 -10 -4 -13 -1 -3 -4 -9 -5
-15 -1 -5 -4 -12 -5 -15 -1 -3 -4 -9 -5 -15 -1 -5 -4 -12 -5 -15 -1 -3 -4 -9
-5 -15 -1 -5 -4 -12 -5 -15 -1 -3 -4 -9 -5 -15 -1 -5 -4 -12 -5 -15 -1 -3 -4
-9 -5 -15 -1 -5 -4 -12 -5 -15 -1 -3 -4 -9 -5 -15 -1 -5 -4 -12 -5 -15 -1 -3
-4 -9 -5 -15 -1 -5 -3 -11 -5 -12 -1 -2 -3 -11 -6 -20 -2 -10 -6 -26 -8 -35
-3 -10 -5 -18 -6 -18 -1 0 -3 -8 -6 -17 -2 -10 -6 -26 -8 -35 -3 -10 -5 -18
-6 -18 -1 0 -3 -7 -5 -15 -4 -16 -12 -48 -20 -80 -3 -11 -7 -29 -10 -40 -10
-41 -16 -66 -20 -85 -3 -11 -7 -31 -11 -45 -7 -32 -13 -58 -19 -95 -4 -16 -8
-39 -10 -50 -2 -11 -6 -35 -9 -53 -3 -17 -8 -47 -11 -65 -15 -87 -24 -157 -43
-332 -9 -89 -9 -797 1 -890 16 -163 26 -240 42 -332 3 -18 8 -48 11 -65 7 -43
10 -62 28 -151 3 -12 7 -33 10 -47 3 -14 8 -35 11 -48 3 -12 7 -31 10 -42 3
-11 7 -29 10 -40 3 -11 7 -29 10 -40 8 -32 16 -64 20 -80 2 -8 4 -15 5 -15 1
0 3 -8 6 -17 2 -10 6 -26 8 -35 3 -10 5 -18 6 -18 1 0 3 -8 6 -17 2 -10 6 -26
8 -35 3 -10 5 -19 6 -20 2 -2 4 -7 5 -13 1 -5 4 -12 5 -15 1 -3 4 -9 5 -15 1
-5 4 -12 5 -15 1 -3 4 -9 5 -15 1 -5 4 -12 5 -15 1 -3 4 -9 5 -15 1 -5 4 -12
5 -15 1 -3 4 -9 5 -15 1 -5 4 -12 5 -15 1 -3 4 -9 5 -15 1 -5 4 -12 5 -15 1
-3 3 -8 5 -12 1 -5 7 -21 14 -38 7 -16 14 -34 15 -40 1 -5 5 -16 9 -22 5 -7 6
-13 2 -13 -3 0 0 -10 7 -22 7 -13 13 -25 13 -28 0 -3 6 -15 13 -27 7 -13 10
-23 7 -23 -4 0 4 -17 17 -37 12 -21 22 -39 20 -41 -1 -1 5 -16 13 -32 9 -17
13 -30 10 -30 -2 0 11 -28 30 -63 19 -35 32 -67 28 -70 -3 -4 0 -7 7 -7 7 0
11 -3 7 -6 -7 -7 38 -100 58 -120 7 -7 23 -38 36 -69 12 -30 26 -55 30 -55 3
0 12 -15 20 -33 7 -17 16 -34 19 -37 7 -6 80 -130 80 -136 0 -3 5 -10 10 -17
23 -27 150 -220 150 -228 0 -5 3 -9 8 -9 4 0 23 -24 42 -52 19 -29 45 -64 56
-78 12 -14 63 -75 113 -137 238 -293 538 -580 856 -818 405 -303 848 -538
1345 -712 85 -30 162 -56 171 -58 8 -2 40 -11 70 -20 30 -9 63 -18 74 -21 11
-2 56 -13 100 -24 44 -11 94 -23 110 -26 17 -3 48 -10 70 -16 22 -5 56 -12 75
-14 19 -3 43 -7 53 -10 10 -3 32 -7 50 -9 18 -3 50 -8 72 -11 51 -9 58 -10
125 -18 30 -4 69 -8 85 -11 204 -28 866 -28 1070 0 17 3 53 7 80 10 52 6 68 9
145 20 25 4 52 8 60 9 8 2 29 6 45 10 17 3 46 9 65 12 46 7 60 10 162 34 837
194 1588 591 2230 1177 111 101 214 207 385 393 37 41 172 209 232 290 30 41
59 77 63 78 4 2 8 7 8 12 0 7 128 202 150 227 5 7 10 14 10 17 0 6 73 130 80
136 3 3 12 20 19 38 8 17 17 32 20 32 4 0 18 25 30 55 13 31 29 62 36 69 16
16 77 136 69 136 -3 0 10 29 30 65 20 36 33 65 30 65 -3 0 5 19 17 43 12 23
28 54 36 70 8 15 11 27 8 27 -3 0 0 10 7 23 7 12 13 24 14 27 0 3 4 14 8 25
15 39 19 50 22 60 1 6 7 24 14 40 6 17 11 32 12 35 0 3 4 11 10 18 6 6 7 12 3
12 -4 0 -2 7 5 15 7 8 9 15 5 15 -4 0 -2 7 5 15 7 8 9 15 5 15 -4 0 -2 7 5 15
7 8 9 15 5 15 -4 0 -2 7 5 15 7 8 9 15 5 15 -4 0 -2 7 5 15 7 8 10 15 6 15 -3
0 0 16 8 35 9 20 15 38 16 40 0 3 0 6 1 8 0 1 2 10 5 20 2 9 6 25 8 35 3 9 5
17 6 17 1 0 3 7 5 15 4 16 12 48 20 80 3 11 7 29 10 40 3 11 8 30 11 42 3 13
7 32 9 43 2 11 7 31 10 45 12 46 26 120 39 198 3 17 8 47 11 65 14 82 28 197
42 332 10 91 10 799 0 890 -14 139 -16 157 -31 265 -3 19 -8 50 -11 67 -3 18
-8 48 -11 65 -3 18 -7 42 -9 53 -2 11 -6 31 -9 45 -3 14 -7 36 -10 50 -2 14
-7 36 -11 50 -3 14 -8 34 -10 45 -2 11 -6 30 -9 43 -3 12 -8 31 -11 42 -3 11
-7 29 -10 40 -8 32 -16 64 -20 80 -2 8 -4 15 -5 15 -1 0 -3 8 -6 18 -2 9 -6
25 -8 35 -3 9 -5 17 -6 17 -1 0 -3 8 -6 18 -2 9 -6 25 -8 35 -3 9 -5 18 -6 20
-2 1 -4 7 -5 12 -1 6 -4 12 -5 15 -1 3 -4 10 -5 15 -1 6 -4 12 -5 15 -1 3 -4
10 -5 15 -1 6 -4 12 -5 15 -1 3 -4 10 -5 15 -1 6 -4 12 -5 15 -1 3 -4 10 -5
15 -1 6 -4 12 -5 15 -1 3 -4 10 -5 15 -1 6 -4 12 -5 15 -1 3 -3 8 -5 13 -1 4
-7 21 -14 37 -7 17 -14 35 -15 40 -3 9 -8 23 -24 65 -3 8 -6 17 -6 20 -1 3 -7
15 -14 28 -7 12 -10 22 -7 22 3 0 0 12 -8 28 -8 15 -24 46 -36 70 -12 23 -20
42 -17 42 3 0 -10 29 -30 65 -20 36 -33 65 -30 65 8 0 -52 120 -68 135 -6 6
-22 36 -36 66 -14 30 -30 60 -37 67 -6 6 -15 22 -18 33 -4 11 -19 40 -34 62
-16 23 -37 58 -47 77 -10 19 -23 39 -27 45 -31 40 -147 219 -147 226 0 5 -3 9
-7 9 -5 0 -24 24 -43 52 -19 29 -45 64 -56 78 -12 14 -63 75 -113 137 -222
273 -479 525 -786 768 -27 22 -55 44 -62 50 -7 5 -19 16 -27 23 -8 6 -19 12
-23 12 -5 0 -20 11 -35 25 -15 14 -30 25 -33 25 -9 0 -79 53 -83 63 -2 4 -8 7
-13 7 -8 0 -116 67 -129 80 -3 3 -21 14 -40 24 -19 11 -37 22 -40 25 -3 4 -16
12 -30 19 -87 45 -106 55 -110 61 -3 3 -29 17 -59 31 -30 14 -60 30 -66 36
-19 19 -132 74 -139 67 -3 -4 -6 0 -6 7 0 7 -3 10 -7 7 -3 -4 -30 7 -60 23
-29 17 -53 28 -53 24 0 -3 -19 5 -42 17 -24 12 -55 28 -70 36 -16 8 -28 11
-28 7 0 -3 -11 1 -25 10 -14 9 -25 14 -25 10 0 -3 -11 1 -25 10 -14 9 -25 14
-25 10 0 -4 -7 -1 -15 6 -8 7 -15 9 -15 6 0 -4 -10 -1 -22 6 -13 7 -26 13 -30
14 -5 1 -10 3 -13 4 -3 1 -9 4 -15 5 -5 1 -12 4 -15 5 -3 1 -9 4 -15 5 -5 1
-12 4 -15 5 -3 1 -9 4 -15 5 -5 1 -12 4 -15 5 -3 1 -9 4 -15 5 -5 1 -12 4 -15
5 -3 1 -9 4 -15 5 -5 1 -12 4 -15 5 -3 1 -9 4 -15 5 -5 1 -12 4 -15 5 -3 1 -9
4 -15 5 -5 1 -11 3 -12 5 -3 1 -21 6 -50 13 -7 1 -19 6 -25 10 -7 5 -13 6 -13
2 0 -3 -8 -1 -18 4 -11 6 -30 12 -43 15 -23 5 -42 9 -89 21 -11 3 -29 7 -40
10 -11 3 -29 7 -40 10 -11 3 -30 8 -42 11 -13 3 -33 8 -45 10 -13 2 -34 7 -48
9 -14 3 -37 8 -52 11 -16 3 -37 7 -48 9 -19 4 -36 7 -115 20 -55 9 -155 23
-220 31 -25 2 -67 8 -95 11 -59 7 -829 15 -836 9z m596 -1740 c22 -3 62 -8 90
-12 27 -3 52 -7 56 -10 4 -2 24 -6 45 -10 110 -16 310 -83 448 -149 415 -200
742 -523 941 -930 51 -103 144 -340 134 -340 -1 0 3 -16 9 -35 6 -19 13 -48
16 -65 3 -16 10 -50 15 -75 37 -174 43 -460 16 -650 -3 -19 -8 -53 -11 -75
-28 -218 -156 -540 -301 -760 -93 -140 -151 -206 -503 -566 l-328 -335 221
-99 c687 -306 836 -380 1073 -536 448 -295 838 -692 1120 -1137 l73 -116 -42
-50 c-425 -508 -1021 -943 -1651 -1203 -156 -64 -443 -161 -526 -177 -14 -3
-49 -12 -78 -20 -29 -8 -56 -15 -60 -16 -4 0 -16 -3 -27 -5 -11 -3 -31 -7 -45
-9 -14 -2 -32 -7 -40 -10 -8 -2 -34 -7 -58 -10 -24 -3 -46 -7 -50 -10 -4 -2
-31 -7 -60 -10 -29 -3 -56 -7 -60 -10 -4 -2 -41 -7 -82 -11 -41 -4 -86 -9
-100 -10 -223 -27 -691 -27 -920 -1 -19 3 -62 7 -95 11 -33 3 -73 9 -90 12
-33 7 -38 8 -105 17 -25 4 -53 9 -63 12 -11 3 -29 7 -40 9 -47 7 -107 20 -142
31 -5 2 -26 6 -45 10 -19 3 -43 10 -52 15 -10 5 -18 8 -18 5 0 -5 -87 18 -120
31 -8 3 -19 7 -25 8 -139 32 -451 157 -685 274 -495 249 -981 625 -1312 1017
-17 20 -15 24 55 140 345 569 809 1019 1393 1350 66 38 315 161 552 273 238
112 432 207 432 211 0 4 -146 150 -325 325 -346 338 -425 424 -527 575 -154
229 -285 555 -313 781 -4 30 -9 65 -11 79 -27 161 -18 471 17 640 5 25 12 59
15 75 3 17 10 46 16 65 6 19 10 35 9 35 -1 0 14 47 34 105 200 579 651 1036
1226 1241 63 22 116 40 119 40 3 0 28 6 55 14 28 8 67 16 89 20 21 3 42 7 46
10 7 4 43 9 180 23 73 8 353 6 415 -2z"/>
</g>
</svg>
